Coordinates
version=1
nRows=11
nColumns=46
inDegrees=yes

Units are S.I. units (second, meters, Newtons, ...)
Angles are in degrees.

endheader
time	pelvis_tilt	pelvis_list	pelvis_rotation	pelvis_tx	pelvis_ty	pelvis_tz	bb_angle	bb_tx	bb_ty	bb_tz	hip_flexion_r	hip_adduction_r	hip_rotation_r	knee_angle_r	knee_angle_r_beta	ankle_angle_r	subtalar_angle_r	mtp_angle_r	crank_angle_r	hip_flexion_l	hip_adduction_l	hip_rotation_l	knee_angle_l	knee_angle_l_beta	ankle_angle_l	subtalar_angle_l	mtp_angle_l	crank_angle_l	lumbar_extension	lumbar_bending	lumbar_rotation	arm_flex_r	arm_add_r	arm_rot_r	elbow_flex_r	pro_sup_r	wrist_flex_r	wrist_dev_r	arm_flex_l	arm_add_l	arm_rot_l	elbow_flex_l	pro_sup_l	wrist_flex_l	wrist_dev_l
      7.50500000	    -19.03304128	      0.67446200	      0.28990879	      0.08489126	      0.99853736	     -0.21156637	      0.00000000	      0.50000000	      0.00000000	      0.25000000	     72.47109952	     -5.63551310	      4.25460219	    103.04826089	      1.79853144	     -6.41397293	    -12.85136933	      0.00000000	      0.00000000	     69.03967563	     -4.20031138	     -0.28547918	     55.54031228	      0.96936132	     -4.24183763	     -6.74306899	      0.00000000	      0.00000000	    -48.32727110	      5.97014473	      1.21828609	     83.31830409	    -16.25650120	     33.65316446	     57.76430602	     47.57070755	      0.00000000	      0.00000000	     89.14516667	    -24.68714730	     59.31634342	     55.06918956	     38.05971427	      0.00000000	      0.00000000
      7.51000000	    -18.77597645	      0.25521174	     -0.42176312	      0.08464788	      0.99759186	     -0.21153368	      0.00000000	      0.50000000	      0.00000000	      0.25000000	     73.99266110	     -4.51531085	      4.77488821	    105.09374467	      1.83423187	     -6.69291244	    -12.39674556	      0.00000000	      0.00000000	     67.31113227	     -4.83737290	     -0.21894384	     53.75002381	      0.93811489	     -5.17804234	     -7.23976600	      0.00000000	      0.00000000	    -48.60102529	      6.11379911	      1.44923476	     83.67556806	    -15.33884233	     33.59853280	     57.57136151	     47.52135224	      0.00000000	      0.00000000	     89.03946247	    -25.55730797	     58.41027196	     55.58120279	     38.08970143	      0.00000000	      0.00000000
      7.51500000	    -18.57736560	     -0.05282438	     -0.99579477	      0.08443593	      0.99657922	     -0.21201580	      0.00000000	      0.50000000	      0.00000000	      0.25000000	     75.63426227	     -3.74941492	      5.19714039	    107.10209610	      1.86928421	     -6.79197165	    -11.93324506	      0.00000000	      0.00000000	     65.59402412	     -5.22248282	     -0.16770158	     51.96948373	      0.90703860	     -6.00166844	     -8.00979772	      0.00000000	      0.00000000	    -48.65252012	      6.47708167	      0.30698111	     85.29911982	    -12.04641496	     35.25636265	     52.90762163	     46.95624246	      0.00000000	      0.00000000	     88.94859073	    -29.10843534	     59.30490405	     57.67909079	     39.20808445	      0.00000000	      0.00000000
      7.52000000	    -18.54904126	     -0.39576095	     -1.71068073	      0.08445458	      0.99571174	     -0.21189244	      0.00000000	      0.50000000	      0.00000000	      0.25000000	     77.42980441	     -2.79631826	      5.48326071	    108.89320471	      1.90054496	     -7.10521709	    -11.73300914	      0.00000000	      0.00000000	     63.97112785	     -5.86101943	     -0.26271119	     50.18180923	      0.87583780	     -6.54439891	     -8.22380503	      0.00000000	      0.00000000	    -48.70832132	      6.47973982	      0.69003684	     85.40136742	    -11.51652471	     35.06894260	     53.13060642	     46.93665554	      0.00000000	      0.00000000	     88.76735138	    -29.61470052	     58.51833258	     57.84512773	     39.32889953	      0.00000000	      0.00000000
      7.52500000	    -18.58774277	     -0.48163556	     -2.27786017	      0.08432226	      0.99524040	     -0.21169479	      0.00000000	      0.50000000	      0.00000000	      0.25000000	     79.37874305	     -2.10637018	      5.88024682	    110.55212000	      1.92949849	     -7.76882329	    -11.82380420	      0.00000000	      0.00000000	     62.22653506	     -6.18636620	     -0.54002182	     48.06782386	      0.83894179	     -7.59963068	     -9.11748437	      0.00000000	      0.00000000	    -48.69680128	      6.42110181	      0.38041042	     85.80022213	    -10.22877022	     35.52743716	     52.07960672	     46.70012604	      0.00000000	      0.00000000	     88.64551950	    -31.08010453	     58.38416278	     58.57349222	     39.92852003	      0.00000000	      0.00000000
      7.53000000	    -18.53361931	     -0.56482374	     -3.16192507	      0.08446547	      0.99506511	     -0.21140155	      0.00000000	      0.50000000	      0.00000000	      0.25000000	     81.24003858	     -1.19450560	      6.30735065	    112.04991146	      1.95563988	     -8.29018304	    -11.44864894	      0.00000000	      0.00000000	     60.37760201	     -6.87193428	     -1.17944330	     46.16838371	      0.80579031	     -8.14613153	     -9.08427030	      0.00000000	      0.00000000	    -48.84020086	      6.12434810	      0.63481044	     86.09087834	     -9.64039414	     35.84129892	     51.89806107	     46.69600890	      0.00000000	      0.00000000	     88.44917218	    -31.84021419	     57.96190459	     58.76723895	     40.02512990	      0.00000000	      0.00000000
      7.53500000	    -18.58888895	     -0.85428962	     -3.88376561	      0.08441328	      0.99472882	     -0.21133577	      0.00000000	      0.50000000	      0.00000000	      0.25000000	     83.17789651	     -0.43459768	      6.33052246	    113.41578937	      1.97947895	     -8.72727634	    -11.26183368	      0.00000000	      0.00000000	     58.69051808	     -7.44324839	     -1.27081373	     44.31487131	      0.77344041	     -8.34041413	     -9.07860701	      0.00000000	      0.00000000	    -48.90155718	      6.07277380	      1.02622401	     86.32319422	     -9.20812269	     35.96106464	     51.94076229	     46.70121443	      0.00000000	      0.00000000	     88.27669575	    -32.34165005	     57.55373647	     58.85493154	     40.06060796	      0.00000000	      0.00000000
      7.54000000	    -18.28057371	     -0.60268102	     -4.91515507	      0.08492179	      0.99559020	     -0.21090743	      0.00000000	      0.50000000	      0.00000000	      0.25000000	     84.81412833	      0.37792011	      6.82519247	    114.58094161	      1.99981469	     -9.85603392	    -11.54585846	      0.00000000	      0.00000000	     56.32122368	     -7.92952248	     -2.26801776	     42.18529771	      0.73627234	     -9.37034817	     -9.67598611	      0.00000000	      0.00000000	    -49.43647064	      5.61863740	     -0.13053230	     87.48040469	     -6.69912608	     37.99603849	     49.20658032	     46.41347624	      0.00000000	      0.00000000	     87.47583294	    -36.05233532	     56.43369102	     62.28935947	     41.26692413	      0.00000000	      0.00000000
      7.54500000	    -18.24787899	     -0.63154605	     -5.92312569	      0.08514078	      0.99585838	     -0.21021645	      0.00000000	      0.50000000	      0.00000000	      0.25000000	     86.73523516	      1.30051389	      6.89019332	    115.60651369	      2.01771430	    -11.07575679	    -11.88302091	      0.00000000	      0.00000000	     54.41045132	     -8.56277595	     -2.87879994	     40.30155747	      0.70339487	    -10.00567902	     -9.92255585	      0.00000000	      0.00000000	    -49.67990632	      5.19998266	     -0.05900492	     87.74535900	     -5.72871148	     38.19002971	     48.93162167	     46.31175517	      0.00000000	      0.00000000	     86.83959253	    -37.37283177	     55.48566202	     63.32834688	     41.90580618	      0.00000000	      0.00000000
      7.55000000	    -18.07190188	     -0.64443261	     -6.96410333	      0.08551701	      0.99663598	     -0.20918468	      0.00000000	      0.50000000	      0.00000000	      0.25000000	     88.45891706	      2.26260333	      6.91430111	    116.49938038	      2.03329776	    -11.92361378	    -12.02191075	      0.00000000	      0.00000000	     52.34871525	     -9.24502765	     -3.62443749	     38.48778942	      0.67173865	    -10.65698217	     -9.80636398	      0.00000000	      0.00000000	    -50.03870243	      4.61146698	      0.24521350	     87.87351701	     -5.23738626	     38.41324509	     49.05479403	     46.32581692	      0.00000000	      0.00000000	     86.48537447	    -37.98966667	     54.96022024	     63.55879505	     42.02151996	      0.00000000	      0.00000000
      7.55500000	    -18.07802518	     -0.91411681	     -7.72760125	      0.08559388	      0.99695908	     -0.20813681	      0.00000000	      0.50000000	      0.00000000	      0.25000000	     90.36609656	      2.98175780	      6.52169564	    117.29762454	      2.04722975	    -12.87425677	    -11.71241521	      0.00000000	      0.00000000	     50.75708470	     -9.92528216	     -3.88526804	     37.03100178	      0.64631291	    -11.12776905	     -9.50558720	      0.00000000	      0.00000000	    -50.23184296	      4.41208181	      0.70454161	     88.01372833	     -4.84787946	     38.55090175	     49.19558805	     46.34631684	      0.00000000	      0.00000000	     86.13229504	    -38.45526827	     54.64938287	     63.69793787	     42.06887250	      0.00000000	      0.00000000
